<svg xmlns="http://www.w3.org/2000/svg" width="960" height="380" viewBox="0 0 960 380" role="img" aria-labelledby="title desc">
  <title id="title">C3 Credibility Flowchart</title>
  <desc id="desc">Left-to-right decision flowchart for C3 Credibility scoring with source-mix logic.</desc>
  <defs>
    <marker id="arrow" markerWidth="10" markerHeight="10" refX="8" refY="5" orient="auto" markerUnits="strokeWidth">
      <path d="M0,0 L10,5 L0,10 Z" fill="#4b5563" />
    </marker>
    <style>
      .bg{fill:#fff}.panel{fill:#f9fafb;stroke:#9ca3af;stroke-width:1.3}
      .title{font:700 21px "Segoe UI",Arial,sans-serif;fill:#111827}
      .sub{font:12px "Segoe UI",Arial,sans-serif;fill:#4b5563}
      .q{fill:#fff;stroke:#9ca3af;stroke-width:1.2}
      .qt{font:11px "Segoe UI",Arial,sans-serif;fill:#1f2937}
      .low{fill:#f3f4f6;stroke:#9ca3af;stroke-width:1.2}
      .mid{fill:#eef2ff;stroke:#9ca3af;stroke-width:1.2}
      .high{fill:#ecfeff;stroke:#9ca3af;stroke-width:1.2}
      .st{font:700 11px "Segoe UI",Arial,sans-serif;fill:#111827}
      .sd{font:10px "Segoe UI",Arial,sans-serif;fill:#1f2937}
      .l{stroke:#6b7280;stroke-width:1.6;fill:none;marker-end:url(#arrow)}
      .yn{font:700 10px "Segoe UI",Arial,sans-serif;fill:#374151}
    </style>
  </defs>
  <rect width="960" height="380" class="bg"/>
  <text x="480" y="30" text-anchor="middle" class="title">Credibility Scoring Flow</text>

  <rect x="30" y="70" width="900" height="290" rx="10" class="panel"/>

  <rect x="55" y="130" width="260" height="56" rx="8" class="q"/>
  <text x="185" y="152" text-anchor="middle" class="qt">Is the claim referenced and</text>
  <text x="185" y="168" text-anchor="middle" class="qt">substantiated?</text>

  <rect x="350" y="130" width="260" height="56" rx="8" class="q"/>
  <text x="480" y="152" text-anchor="middle" class="qt">Is evidence majority autosource feeds</text>
  <text x="480" y="168" text-anchor="middle" class="qt">and newspapers?</text>

  <rect x="645" y="130" width="260" height="56" rx="8" class="q"/>
  <text x="775" y="152" text-anchor="middle" class="qt">Does the mix include independent institutions,</text>
  <text x="775" y="168" text-anchor="middle" class="qt">academic sources, and UN-type agencies?</text>

  <rect x="55" y="270" width="260" height="54" rx="8" class="low"/>
  <text x="185" y="292" text-anchor="middle" class="st">LOW (0)</text>
  <text x="185" y="308" text-anchor="middle" class="sd">unsubstantiated or autosource/news dominated</text>

  <rect x="350" y="270" width="260" height="54" rx="8" class="mid"/>
  <text x="480" y="292" text-anchor="middle" class="st">MEDIUM (1)</text>
  <text x="480" y="308" text-anchor="middle" class="sd">mixed sources: newspaper + academic + government</text>

  <rect x="645" y="270" width="260" height="54" rx="8" class="high"/>
  <text x="775" y="292" text-anchor="middle" class="st">HIGH (2)</text>
  <text x="775" y="308" text-anchor="middle" class="sd">independent institutions + academic + UN agencies</text>

  <path class="l" d="M315 158 L350 158"/><text x="329" y="146" class="yn">YES</text>
  <path class="l" d="M185 186 L185 270"/><text x="197" y="232" class="yn">NO</text>

  <path class="l" d="M610 158 L645 158"/><text x="625" y="146" class="yn">YES</text>
  <path class="l" d="M480 186 L480 270"/><text x="492" y="232" class="yn">YES</text>
  <path class="l" d="M480 186 L480 218 L185 218 L185 270"/><text x="330" y="210" class="yn">NO</text>

  <path class="l" d="M775 186 L775 270"/><text x="787" y="232" class="yn">YES</text>
  <path class="l" d="M775 186 L775 218 L545 218 L545 270"/><text x="650" y="210" class="yn">NO</text>
</svg>
